# xmcd
#
# Track frame offsets:
#	150
#	16794
#	33216
#	53369
#	71020
#	87715
#	103401
#	125182
#	142167
#	158184
#	170992
#	186131
#	202981
#	218275
#	232544
#	249474
#	264359
#	280294
#	296626
#	313429
#
# Disc length: 4425 seconds
#
# Revision: 0
# Processed by: cddbd v1.5.2PL0 Copyright (c) Steve Scherf et al.
# Submitted via: dBpowerAMP V4.0
#
DISCID=2a114714
DTITLE=Vários - Na Onda do Sertanejo
DYEAR=1900
DGENRE=
TTITLE0=Bruno e Marrone - Doideira
TTITLE1=Eduardo Costa - Melhor ou pior
TTITLE2=Zezé Dicamargo and Luciano - Não Quero te Perder
TTITLE3=Rik and Renner - Não São Coisas de Amor
TTITLE4=Rodrigo and Ricardo - Cupido Locutor
TTITLE5=Léo Magalhães - Primeiro de Abril
TTITLE6=Rene and Ray - Ta Fazendo Muito Tempo
TTITLE7=Rio Negro and Solimões - Chora Violão
TTITLE8=Amado Batista - Amigo
TTITLE9=Ataide and Alexandre - De Cara Pra Solidão
TTITLE10=Maida and Marcelo - Por Você
TTITLE11=Chico Rey and Paraná - Pensa Um pouco
TTITLE12=Tales and Erson - Amor Bandido
TTITLE13=Marcos Paulo and Rafael - Greve de Fome
TTITLE14=Daniel - Amiga
TTITLE15=Rodrigo and Ricardo - Devolva a Chave do Meu Coração
TTITLE16=Ouro Negro and Dorivan - Quem Ama Cuida
TTITLE17=Guilherme and Santiago - Quem Ama Não Deixa de Amar
TTITLE18=Chico Rey and Paraná - Saudade de Nós
TTITLE19=Di Paulo and Paulino - Outro Alguém
EXTD=Ricardo Maia
EXTT0=
EXTT1=
EXTT2=
EXTT3=
EXTT4=
EXTT5=
EXTT6=
EXTT7=
EXTT8=
EXTT9=
EXTT10=
EXTT11=
EXTT12=
EXTT13=
EXTT14=
EXTT15=
EXTT16=
EXTT17=
EXTT18=
EXTT19=
PLAYORDER=
